<?xml version="1.0" encoding="utf-8"?>
<svg version="1.1" xmlns="http://www.w3.org/2000/svg" xmlns:xlink="http://www.w3.org/1999/xlink" x="0px" y="0px"
	 viewBox="0 0 256 256" style="enable-background:new 0 0 256 256;" xml:space="preserve">
<style type="text/css">
	.st0{fill:#4C7E3A;}
	.st1{fill:#FFFFFF;}
</style>
<title>EXT:proxycachemanager</title>
<rect y="0" class="st0" width="256" height="256"/>
<path class="st1" d="M176.7,40.3h-117c-10.8,0-19.5,8.8-19.5,19.5v136.5c0,10.7,8.7,19.5,19.5,19.5h136.5c10.7,0,19.5-8.8,19.5-19.5
	v-117L176.7,40.3z M128,200.5c-23.4,0-42.4-18.9-42.4-42.4s18.9-42.4,42.4-42.4s42.4,18.9,42.4,42.4S151.4,200.5,128,200.5z
	 M157.2,98.8H59.8v-39h97.5V98.8z"/>
<path class="st1" d="M128,139.7v9.2l12.2-12.2L128,124.5v9.2c-13.5,0-24.5,10.9-24.5,24.5c0,4.8,1.4,9.3,3.8,13l4.5-4.5
	c-1.4-2.5-2.1-5.5-2.1-8.6C109.7,148,117.9,139.7,128,139.7z M148.7,145.1l-4.5,4.5c1.3,2.6,2.1,5.5,2.1,8.6
	c0,10.1-8.2,18.3-18.3,18.3v-9.2l-12.2,12.2l12.2,12.2v-9.2c13.5,0,24.5-10.9,24.5-24.5C152.5,153.3,151,148.8,148.7,145.1z"/>
</svg>
